<?xml version="1.0" standalone="no"?>
<!DOCTYPE svg PUBLIC "-//W3C//DTD SVG 20010904//EN"
 "http://www.w3.org/TR/2001/REC-SVG-20010904/DTD/svg10.dtd">
<svg version="1.0" xmlns="http://www.w3.org/2000/svg"
 width="767.000000pt" height="1023.000000pt" viewBox="0 0 767.000000 1023.000000"
 preserveAspectRatio="xMidYMid meet">

<g transform="translate(0.000000,1023.000000) scale(0.100000,-0.100000)"
fill="#000000" stroke="none">
<path d="M5025 8333 c-523 -28 -1073 -203 -1517 -481 -715 -448 -1223 -1145
-1423 -1954 -176 -712 -110 -1444 193 -2116 255 -569 716 -1088 1257 -1417
562 -342 1244 -509 1866 -456 785 67 1533 380 2077 869 l82 74 0 1364 0 1364
-1275 0 -1275 0 0 -565 0 -565 705 0 705 0 -2 -502 -3 -502 -80 -49 c-263
-161 -604 -280 -930 -323 -148 -20 -421 -20 -560 1 -623 91 -1163 447 -1484
978 -523 866 -336 1976 444 2635 402 339 964 526 1452 483 474 -42 895 -236
1284 -591 l86 -78 407 407 407 407 -133 130 c-565 554 -1294 863 -2093 887
-71 2 -157 2 -190 0z"/>
<path d="M130 5115 l0 -3065 590 0 590 0 0 3065 0 3065 -590 0 -590 0 0 -3065z"/>
</g>
</svg>
